<svg xmlns="http://www.w3.org/2000/svg" width="512" height="720" viewBox="0 0 512 720"><rect width="512" height="720" rx="32" fill="#172A37"/><rect x="17" y="17" width="478" height="686" rx="22" fill="none" stroke="#BD9553" stroke-width="1.5"/><rect x="28" y="28" width="456" height="664" rx="15" fill="none" stroke="#96C9B7" stroke-opacity=".45" stroke-width=".6"/><path d="M58 49Q60 58 69 60Q60 62 58 71Q56 62 47 60Q56 58 58 49Z" fill="#BD9553"/><path d="M454 49Q456 58 465 60Q456 62 454 71Q452 62 443 60Q452 58 454 49Z" fill="#BD9553"/><path d="M58 649Q60 658 69 660Q60 662 58 671Q56 662 47 660Q56 658 58 649Z" fill="#BD9553"/><path d="M454 649Q456 658 465 660Q456 662 454 671Q452 662 443 660Q452 658 454 649Z" fill="#BD9553"/><path d="M256 71L256 649" fill="none" stroke="#BD9553" stroke-width="0.8"/><path d="M84 360L428 360" fill="none" stroke="#BD9553" stroke-width="0.8"/><circle cx="256" cy="360" r="177" fill="none" stroke="#BD9553" stroke-width="1.4"/><circle cx="256" cy="360" r="165" fill="none" stroke="#96C9B7" stroke-width="0.8"/><circle cx="256" cy="360" r="116" fill="none" stroke="#BD9553" stroke-width="1"/><ellipse cx="256" cy="360" rx="153" ry="58" transform="rotate(0 256 360)" fill="none" stroke="#96C9B7" stroke-width="1.7"/><ellipse cx="256" cy="360" rx="153" ry="58" transform="rotate(60 256 360)" fill="none" stroke="#96C9B7" stroke-width="1.7"/><ellipse cx="256" cy="360" rx="153" ry="58" transform="rotate(120 256 360)" fill="none" stroke="#96C9B7" stroke-width="1.7"/><path d="M256 128 L438 360 L256 592 L74 360Z" fill="none" stroke="#BD9553" stroke-width="1.3"/><circle cx="256" cy="360" r="51" fill="#172A37" stroke="#BD9553" stroke-width="1.5"/><circle cx="256" cy="360" r="42" fill="none" stroke="#96C9B7" stroke-width="0.8"/><path d="M256 329Q258 358 287 360Q258 362 256 391Q254 362 225 360Q254 358 256 329Z" fill="#BD9553"/><circle cx="433.0" cy="360.0" r="3" fill="#BD9553" stroke="#172A37" stroke-width="1"/><circle cx="409.286" cy="448.5" r="3" fill="#BD9553" stroke="#172A37" stroke-width="1"/><circle cx="344.5" cy="513.286" r="3" fill="#BD9553" stroke="#172A37" stroke-width="1"/><circle cx="256.0" cy="537.0" r="3" fill="#BD9553" stroke="#172A37" stroke-width="1"/><circle cx="167.5" cy="513.286" r="3" fill="#BD9553" stroke="#172A37" stroke-width="1"/><circle cx="102.714" cy="448.5" r="3" fill="#BD9553" stroke="#172A37" stroke-width="1"/><circle cx="79.0" cy="360.0" r="3" fill="#BD9553" stroke="#172A37" stroke-width="1"/><circle cx="102.714" cy="271.5" r="3" fill="#BD9553" stroke="#172A37" stroke-width="1"/><circle cx="167.5" cy="206.714" r="3" fill="#BD9553" stroke="#172A37" stroke-width="1"/><circle cx="256.0" cy="183.0" r="3" fill="#BD9553" stroke="#172A37" stroke-width="1"/><circle cx="344.5" cy="206.714" r="3" fill="#BD9553" stroke="#172A37" stroke-width="1"/><circle cx="409.286" cy="271.5" r="3" fill="#BD9553" stroke="#172A37" stroke-width="1"/><circle cx="256" cy="144" r="9" fill="#BD9553" stroke="#172A37" stroke-width="2"/><circle cx="256" cy="576" r="9" fill="#96C9B7" stroke="#172A37" stroke-width="2"/><path d="M256 78Q258 86 266 88Q258 90 256 98Q254 90 246 88Q254 86 256 78Z" fill="#96C9B7"/><path d="M256 622Q258 630 266 632Q258 634 256 642Q254 634 246 632Q254 630 256 622Z" fill="#96C9B7"/></svg>